<mxfile host="app.diagrams.net" modified="2023-01-20T06:18:21.610Z" agent="5.0 (Windows NT 10.0; Win64; x64) AppleWebKit/537.36 (KHTML, like Gecko) Chrome/109.0.0.0 Safari/537.36" etag="Ielb3CeMWa-nRklVyJpR" version="20.8.8" type="github" pages="2">
  <diagram id="jZ9dLvTM9Wt9Y2EBPhjy" name="class-UML">
    <mxGraphModel dx="1674" dy="788" grid="1" gridSize="10" guides="1" tooltips="1" connect="1" arrows="1" fold="1" page="1" pageScale="1" pageWidth="850" pageHeight="1100" math="0" shadow="0">
      <root>
        <mxCell id="0" />
        <mxCell id="1" parent="0" />
        <mxCell id="QLh520BjIluGX8JwNs9W-1" value="Agent" style="swimlane;fontStyle=1;align=center;verticalAlign=top;childLayout=stackLayout;horizontal=1;startSize=26;horizontalStack=0;resizeParent=1;resizeParentMax=0;resizeLast=0;collapsible=1;marginBottom=0;" parent="1" vertex="1">
          <mxGeometry x="40" y="360" width="330" height="250" as="geometry" />
        </mxCell>
        <mxCell id="QLh520BjIluGX8JwNs9W-2" value="- name: String&#xa;- table: List&lt;String&gt;&#xa;- ingredient1: String&#xa;- ingredient2: String&#xa;- ingredient3: String&#xa;- MIN_RANGE: int=1&#xa;- MAX_RANGE: int=3" style="text;strokeColor=none;fillColor=none;align=left;verticalAlign=top;spacingLeft=4;spacingRight=4;overflow=hidden;rotatable=0;points=[[0,0.5],[1,0.5]];portConstraint=eastwest;" parent="QLh520BjIluGX8JwNs9W-1" vertex="1">
          <mxGeometry y="26" width="330" height="104" as="geometry" />
        </mxCell>
        <mxCell id="QLh520BjIluGX8JwNs9W-3" value="" style="line;strokeWidth=1;fillColor=none;align=left;verticalAlign=middle;spacingTop=-1;spacingLeft=3;spacingRight=3;rotatable=0;labelPosition=right;points=[];portConstraint=eastwest;strokeColor=inherit;" parent="QLh520BjIluGX8JwNs9W-1" vertex="1">
          <mxGeometry y="130" width="330" height="8" as="geometry" />
        </mxCell>
        <mxCell id="QLh520BjIluGX8JwNs9W-4" value="+ Agent(name: String, table List&lt;String&gt;, &#xa;              ingredient1: String, &#xa;              ingredient2: String, &#xa;              ingredient3: String)&#xa;+ run(): void&#xa;+ putIngredients(table: List&lt;String&gt;): boolean&#xa;+ randomSelection(min: int, max: int): int" style="text;strokeColor=none;fillColor=none;align=left;verticalAlign=top;spacingLeft=4;spacingRight=4;overflow=hidden;rotatable=0;points=[[0,0.5],[1,0.5]];portConstraint=eastwest;" parent="QLh520BjIluGX8JwNs9W-1" vertex="1">
          <mxGeometry y="138" width="330" height="112" as="geometry" />
        </mxCell>
        <mxCell id="QLh520BjIluGX8JwNs9W-5" value="Kitchen" style="swimlane;fontStyle=1;align=center;verticalAlign=top;childLayout=stackLayout;horizontal=1;startSize=26;horizontalStack=0;resizeParent=1;resizeParentMax=0;resizeLast=0;collapsible=1;marginBottom=0;" parent="1" vertex="1">
          <mxGeometry x="345" y="680" width="160" height="90" as="geometry" />
        </mxCell>
        <mxCell id="QLh520BjIluGX8JwNs9W-6" value="+ count: int" style="text;strokeColor=none;fillColor=none;align=left;verticalAlign=top;spacingLeft=4;spacingRight=4;overflow=hidden;rotatable=0;points=[[0,0.5],[1,0.5]];portConstraint=eastwest;fontStyle=4" parent="QLh520BjIluGX8JwNs9W-5" vertex="1">
          <mxGeometry y="26" width="160" height="24" as="geometry" />
        </mxCell>
        <mxCell id="QLh520BjIluGX8JwNs9W-7" value="" style="line;strokeWidth=1;fillColor=none;align=left;verticalAlign=middle;spacingTop=-1;spacingLeft=3;spacingRight=3;rotatable=0;labelPosition=right;points=[];portConstraint=eastwest;strokeColor=inherit;" parent="QLh520BjIluGX8JwNs9W-5" vertex="1">
          <mxGeometry y="50" width="160" height="8" as="geometry" />
        </mxCell>
        <mxCell id="QLh520BjIluGX8JwNs9W-8" value="+ main(args: String[]): void" style="text;strokeColor=none;fillColor=none;align=left;verticalAlign=top;spacingLeft=4;spacingRight=4;overflow=hidden;rotatable=0;points=[[0,0.5],[1,0.5]];portConstraint=eastwest;fontStyle=4" parent="QLh520BjIluGX8JwNs9W-5" vertex="1">
          <mxGeometry y="58" width="160" height="32" as="geometry" />
        </mxCell>
        <mxCell id="QLh520BjIluGX8JwNs9W-9" value="Chef" style="swimlane;fontStyle=1;align=center;verticalAlign=top;childLayout=stackLayout;horizontal=1;startSize=26;horizontalStack=0;resizeParent=1;resizeParentMax=0;resizeLast=0;collapsible=1;marginBottom=0;" parent="1" vertex="1">
          <mxGeometry x="470" y="360" width="330" height="150" as="geometry" />
        </mxCell>
        <mxCell id="QLh520BjIluGX8JwNs9W-10" value="- name: String&#xa;- ingredient: String&#xa;- table: List&lt;String&gt;&#xa;- MAX_SANDWICHES: int=20" style="text;strokeColor=none;fillColor=none;align=left;verticalAlign=top;spacingLeft=4;spacingRight=4;overflow=hidden;rotatable=0;points=[[0,0.5],[1,0.5]];portConstraint=eastwest;fontStyle=0" parent="QLh520BjIluGX8JwNs9W-9" vertex="1">
          <mxGeometry y="26" width="330" height="64" as="geometry" />
        </mxCell>
        <mxCell id="QLh520BjIluGX8JwNs9W-11" value="" style="line;strokeWidth=1;fillColor=none;align=left;verticalAlign=middle;spacingTop=-1;spacingLeft=3;spacingRight=3;rotatable=0;labelPosition=right;points=[];portConstraint=eastwest;strokeColor=inherit;" parent="QLh520BjIluGX8JwNs9W-9" vertex="1">
          <mxGeometry y="90" width="330" height="8" as="geometry" />
        </mxCell>
        <mxCell id="QLh520BjIluGX8JwNs9W-12" value="+ Chef(name: String, table: List&lt;String&gt;, ingredient: String)&#xa;+ run(): void&#xa;+ getSandwich(): Object" style="text;strokeColor=none;fillColor=none;align=left;verticalAlign=top;spacingLeft=4;spacingRight=4;overflow=hidden;rotatable=0;points=[[0,0.5],[1,0.5]];portConstraint=eastwest;" parent="QLh520BjIluGX8JwNs9W-9" vertex="1">
          <mxGeometry y="98" width="330" height="52" as="geometry" />
        </mxCell>
        <mxCell id="QLh520BjIluGX8JwNs9W-13" value="Thread" style="swimlane;fontStyle=1;align=center;verticalAlign=top;childLayout=stackLayout;horizontal=1;startSize=26;horizontalStack=0;resizeParent=1;resizeParentMax=0;resizeLast=0;collapsible=1;marginBottom=0;" parent="1" vertex="1">
          <mxGeometry x="345" y="200" width="160" height="86" as="geometry" />
        </mxCell>
        <mxCell id="QLh520BjIluGX8JwNs9W-14" value="- name: String" style="text;strokeColor=none;fillColor=none;align=left;verticalAlign=top;spacingLeft=4;spacingRight=4;overflow=hidden;rotatable=0;points=[[0,0.5],[1,0.5]];portConstraint=eastwest;" parent="QLh520BjIluGX8JwNs9W-13" vertex="1">
          <mxGeometry y="26" width="160" height="26" as="geometry" />
        </mxCell>
        <mxCell id="QLh520BjIluGX8JwNs9W-15" value="" style="line;strokeWidth=1;fillColor=none;align=left;verticalAlign=middle;spacingTop=-1;spacingLeft=3;spacingRight=3;rotatable=0;labelPosition=right;points=[];portConstraint=eastwest;strokeColor=inherit;" parent="QLh520BjIluGX8JwNs9W-13" vertex="1">
          <mxGeometry y="52" width="160" height="8" as="geometry" />
        </mxCell>
        <mxCell id="QLh520BjIluGX8JwNs9W-16" value="+ run(): void" style="text;strokeColor=none;fillColor=none;align=left;verticalAlign=top;spacingLeft=4;spacingRight=4;overflow=hidden;rotatable=0;points=[[0,0.5],[1,0.5]];portConstraint=eastwest;" parent="QLh520BjIluGX8JwNs9W-13" vertex="1">
          <mxGeometry y="60" width="160" height="26" as="geometry" />
        </mxCell>
        <mxCell id="SmNgt1I2NTOKzklu5Ie5-1" value="" style="endArrow=block;endSize=16;endFill=0;html=1;rounded=0;edgeStyle=orthogonalEdgeStyle;" parent="1" source="QLh520BjIluGX8JwNs9W-1" target="QLh520BjIluGX8JwNs9W-13" edge="1">
          <mxGeometry width="160" relative="1" as="geometry">
            <mxPoint x="340" y="410" as="sourcePoint" />
            <mxPoint x="500" y="410" as="targetPoint" />
          </mxGeometry>
        </mxCell>
        <mxCell id="SmNgt1I2NTOKzklu5Ie5-2" value="" style="endArrow=block;endSize=16;endFill=0;html=1;rounded=0;edgeStyle=orthogonalEdgeStyle;" parent="1" source="QLh520BjIluGX8JwNs9W-9" target="QLh520BjIluGX8JwNs9W-13" edge="1">
          <mxGeometry width="160" relative="1" as="geometry">
            <mxPoint x="315.3014184397164" y="380" as="sourcePoint" />
            <mxPoint x="402.2163120567375" y="266" as="targetPoint" />
          </mxGeometry>
        </mxCell>
        <mxCell id="SmNgt1I2NTOKzklu5Ie5-6" value="1" style="text;html=1;strokeColor=none;fillColor=none;align=center;verticalAlign=middle;whiteSpace=wrap;rounded=0;" parent="1" vertex="1">
          <mxGeometry x="160" y="610" width="40" height="30" as="geometry" />
        </mxCell>
        <mxCell id="SmNgt1I2NTOKzklu5Ie5-8" value="1" style="text;html=1;strokeColor=none;fillColor=none;align=center;verticalAlign=middle;whiteSpace=wrap;rounded=0;" parent="1" vertex="1">
          <mxGeometry x="420" y="650" width="40" height="30" as="geometry" />
        </mxCell>
        <mxCell id="SmNgt1I2NTOKzklu5Ie5-9" value="3" style="text;html=1;strokeColor=none;fillColor=none;align=center;verticalAlign=middle;whiteSpace=wrap;rounded=0;" parent="1" vertex="1">
          <mxGeometry x="640" y="510" width="40" height="30" as="geometry" />
        </mxCell>
        <mxCell id="OBzJvEQzt2gqPetylem5-1" value="" style="endArrow=diamondThin;endFill=0;endSize=24;html=1;rounded=0;edgeStyle=orthogonalEdgeStyle;" edge="1" parent="1" source="QLh520BjIluGX8JwNs9W-5" target="QLh520BjIluGX8JwNs9W-9">
          <mxGeometry width="160" relative="1" as="geometry">
            <mxPoint x="340" y="410" as="sourcePoint" />
            <mxPoint x="500" y="410" as="targetPoint" />
            <Array as="points">
              <mxPoint x="425" y="640" />
              <mxPoint x="635" y="640" />
            </Array>
          </mxGeometry>
        </mxCell>
        <mxCell id="OBzJvEQzt2gqPetylem5-2" value="" style="endArrow=diamondThin;endFill=0;endSize=24;html=1;rounded=0;edgeStyle=orthogonalEdgeStyle;" edge="1" parent="1" source="QLh520BjIluGX8JwNs9W-5" target="QLh520BjIluGX8JwNs9W-1">
          <mxGeometry width="160" relative="1" as="geometry">
            <mxPoint x="467.58620689655163" y="690" as="sourcePoint" />
            <mxPoint x="590.689655172414" y="520" as="targetPoint" />
            <Array as="points">
              <mxPoint x="425" y="640" />
              <mxPoint x="205" y="640" />
            </Array>
          </mxGeometry>
        </mxCell>
      </root>
    </mxGraphModel>
  </diagram>
  <diagram id="Tbj0oZMairq3HEpZuRnw" name="sequence-UML">
    <mxGraphModel dx="2630" dy="438" grid="1" gridSize="10" guides="1" tooltips="1" connect="1" arrows="1" fold="1" page="1" pageScale="1" pageWidth="850" pageHeight="1100" math="0" shadow="0">
      <root>
        <mxCell id="0" />
        <mxCell id="1" parent="0" />
        <mxCell id="Be_zVolLUweFgLfppq9m-1" value="agent:Agent" style="html=1;" vertex="1" parent="1">
          <mxGeometry x="660" y="40" width="110" height="50" as="geometry" />
        </mxCell>
        <mxCell id="Be_zVolLUweFgLfppq9m-2" value="" style="endArrow=none;html=1;rounded=0;" edge="1" parent="1" source="Be_zVolLUweFgLfppq9m-3" target="Be_zVolLUweFgLfppq9m-1">
          <mxGeometry width="50" height="50" relative="1" as="geometry">
            <mxPoint x="715" y="260" as="sourcePoint" />
            <mxPoint x="590" y="200" as="targetPoint" />
          </mxGeometry>
        </mxCell>
        <mxCell id="Be_zVolLUweFgLfppq9m-3" value="" style="rounded=0;whiteSpace=wrap;html=1;" vertex="1" parent="1">
          <mxGeometry x="705" y="180" width="20" height="530" as="geometry" />
        </mxCell>
        <mxCell id="Be_zVolLUweFgLfppq9m-4" value="" style="rounded=0;whiteSpace=wrap;html=1;" vertex="1" parent="1">
          <mxGeometry x="705" y="850" width="20" height="60" as="geometry" />
        </mxCell>
        <mxCell id="Be_zVolLUweFgLfppq9m-5" value="" style="endArrow=none;html=1;rounded=0;" edge="1" parent="1" source="Be_zVolLUweFgLfppq9m-4" target="Be_zVolLUweFgLfppq9m-3">
          <mxGeometry width="50" height="50" relative="1" as="geometry">
            <mxPoint x="540" y="260" as="sourcePoint" />
            <mxPoint x="760" y="210" as="targetPoint" />
          </mxGeometry>
        </mxCell>
        <mxCell id="Be_zVolLUweFgLfppq9m-7" value="" style="endArrow=none;html=1;rounded=0;" edge="1" parent="1" target="Be_zVolLUweFgLfppq9m-4">
          <mxGeometry width="50" height="50" relative="1" as="geometry">
            <mxPoint x="715" y="980" as="sourcePoint" />
            <mxPoint x="760" y="920" as="targetPoint" />
          </mxGeometry>
        </mxCell>
        <mxCell id="Be_zVolLUweFgLfppq9m-8" value="chef1:Chef" style="html=1;" vertex="1" parent="1">
          <mxGeometry x="60" y="40" width="110" height="50" as="geometry" />
        </mxCell>
        <mxCell id="Be_zVolLUweFgLfppq9m-9" value="" style="endArrow=none;html=1;rounded=0;" edge="1" parent="1" source="Be_zVolLUweFgLfppq9m-10" target="Be_zVolLUweFgLfppq9m-8">
          <mxGeometry width="50" height="50" relative="1" as="geometry">
            <mxPoint x="115" y="260" as="sourcePoint" />
            <mxPoint x="-10" y="200" as="targetPoint" />
          </mxGeometry>
        </mxCell>
        <mxCell id="Be_zVolLUweFgLfppq9m-10" value="" style="rounded=0;whiteSpace=wrap;html=1;" vertex="1" parent="1">
          <mxGeometry x="105" y="180" width="20" height="540" as="geometry" />
        </mxCell>
        <mxCell id="Be_zVolLUweFgLfppq9m-11" value="" style="rounded=0;whiteSpace=wrap;html=1;" vertex="1" parent="1">
          <mxGeometry x="105" y="840" width="20" height="60" as="geometry" />
        </mxCell>
        <mxCell id="Be_zVolLUweFgLfppq9m-12" value="" style="endArrow=none;html=1;rounded=0;" edge="1" parent="1" source="Be_zVolLUweFgLfppq9m-11" target="Be_zVolLUweFgLfppq9m-10">
          <mxGeometry width="50" height="50" relative="1" as="geometry">
            <mxPoint x="-60" y="310" as="sourcePoint" />
            <mxPoint x="160" y="260" as="targetPoint" />
          </mxGeometry>
        </mxCell>
        <mxCell id="Be_zVolLUweFgLfppq9m-13" value="" style="endArrow=none;html=1;rounded=0;" edge="1" parent="1" target="Be_zVolLUweFgLfppq9m-11">
          <mxGeometry width="50" height="50" relative="1" as="geometry">
            <mxPoint x="115" y="970" as="sourcePoint" />
            <mxPoint x="160" y="910" as="targetPoint" />
          </mxGeometry>
        </mxCell>
        <mxCell id="Be_zVolLUweFgLfppq9m-14" value="chef2:Chef" style="html=1;" vertex="1" parent="1">
          <mxGeometry x="210" y="40" width="110" height="50" as="geometry" />
        </mxCell>
        <mxCell id="Be_zVolLUweFgLfppq9m-15" value="" style="endArrow=none;html=1;rounded=0;" edge="1" parent="1" source="Be_zVolLUweFgLfppq9m-16" target="Be_zVolLUweFgLfppq9m-14">
          <mxGeometry width="50" height="50" relative="1" as="geometry">
            <mxPoint x="265" y="260" as="sourcePoint" />
            <mxPoint x="140" y="200" as="targetPoint" />
          </mxGeometry>
        </mxCell>
        <mxCell id="Be_zVolLUweFgLfppq9m-16" value="" style="rounded=0;whiteSpace=wrap;html=1;" vertex="1" parent="1">
          <mxGeometry x="255" y="200" width="20" height="520" as="geometry" />
        </mxCell>
        <mxCell id="Be_zVolLUweFgLfppq9m-17" value="" style="rounded=0;whiteSpace=wrap;html=1;" vertex="1" parent="1">
          <mxGeometry x="255" y="830" width="20" height="60" as="geometry" />
        </mxCell>
        <mxCell id="Be_zVolLUweFgLfppq9m-18" value="" style="endArrow=none;html=1;rounded=0;" edge="1" parent="1" source="Be_zVolLUweFgLfppq9m-17" target="Be_zVolLUweFgLfppq9m-16">
          <mxGeometry width="50" height="50" relative="1" as="geometry">
            <mxPoint x="90" y="320" as="sourcePoint" />
            <mxPoint x="310" y="270" as="targetPoint" />
          </mxGeometry>
        </mxCell>
        <mxCell id="Be_zVolLUweFgLfppq9m-19" value="" style="endArrow=none;html=1;rounded=0;" edge="1" parent="1" target="Be_zVolLUweFgLfppq9m-17">
          <mxGeometry width="50" height="50" relative="1" as="geometry">
            <mxPoint x="265" y="960" as="sourcePoint" />
            <mxPoint x="310" y="900" as="targetPoint" />
          </mxGeometry>
        </mxCell>
        <mxCell id="Be_zVolLUweFgLfppq9m-20" value="chef3:Chef" style="html=1;" vertex="1" parent="1">
          <mxGeometry x="360" y="40" width="110" height="50" as="geometry" />
        </mxCell>
        <mxCell id="Be_zVolLUweFgLfppq9m-21" value="" style="endArrow=none;html=1;rounded=0;" edge="1" parent="1" source="Be_zVolLUweFgLfppq9m-22" target="Be_zVolLUweFgLfppq9m-20">
          <mxGeometry width="50" height="50" relative="1" as="geometry">
            <mxPoint x="415" y="260" as="sourcePoint" />
            <mxPoint x="290" y="200" as="targetPoint" />
          </mxGeometry>
        </mxCell>
        <mxCell id="Be_zVolLUweFgLfppq9m-22" value="" style="rounded=0;whiteSpace=wrap;html=1;" vertex="1" parent="1">
          <mxGeometry x="405" y="220" width="20" height="470" as="geometry" />
        </mxCell>
        <mxCell id="Be_zVolLUweFgLfppq9m-23" value="" style="rounded=0;whiteSpace=wrap;html=1;" vertex="1" parent="1">
          <mxGeometry x="405" y="850" width="20" height="60" as="geometry" />
        </mxCell>
        <mxCell id="Be_zVolLUweFgLfppq9m-24" value="" style="endArrow=none;html=1;rounded=0;" edge="1" parent="1" source="Be_zVolLUweFgLfppq9m-23" target="Be_zVolLUweFgLfppq9m-22">
          <mxGeometry width="50" height="50" relative="1" as="geometry">
            <mxPoint x="240" y="340" as="sourcePoint" />
            <mxPoint x="460" y="290" as="targetPoint" />
          </mxGeometry>
        </mxCell>
        <mxCell id="Be_zVolLUweFgLfppq9m-25" value="" style="endArrow=none;html=1;rounded=0;" edge="1" parent="1" target="Be_zVolLUweFgLfppq9m-23">
          <mxGeometry width="50" height="50" relative="1" as="geometry">
            <mxPoint x="415" y="960" as="sourcePoint" />
            <mxPoint x="460" y="840" as="targetPoint" />
          </mxGeometry>
        </mxCell>
        <mxCell id="Be_zVolLUweFgLfppq9m-26" value=":Kitchen" style="html=1;" vertex="1" parent="1">
          <mxGeometry x="510" y="40" width="110" height="50" as="geometry" />
        </mxCell>
        <mxCell id="Be_zVolLUweFgLfppq9m-27" value="" style="endArrow=none;html=1;rounded=0;" edge="1" parent="1" source="Be_zVolLUweFgLfppq9m-28" target="Be_zVolLUweFgLfppq9m-26">
          <mxGeometry width="50" height="50" relative="1" as="geometry">
            <mxPoint x="565" y="260" as="sourcePoint" />
            <mxPoint x="440" y="200" as="targetPoint" />
          </mxGeometry>
        </mxCell>
        <mxCell id="Be_zVolLUweFgLfppq9m-28" value="" style="rounded=0;whiteSpace=wrap;html=1;" vertex="1" parent="1">
          <mxGeometry x="555" y="120" width="20" height="620" as="geometry" />
        </mxCell>
        <mxCell id="Be_zVolLUweFgLfppq9m-30" value="" style="endArrow=none;html=1;rounded=0;" edge="1" parent="1" target="Be_zVolLUweFgLfppq9m-28">
          <mxGeometry width="50" height="50" relative="1" as="geometry">
            <mxPoint x="565" y="909.9999999999999" as="sourcePoint" />
            <mxPoint x="565" y="850.0000000000002" as="targetPoint" />
          </mxGeometry>
        </mxCell>
        <mxCell id="Be_zVolLUweFgLfppq9m-32" value="main()" style="html=1;verticalAlign=bottom;endArrow=block;rounded=0;" edge="1" parent="1">
          <mxGeometry x="0.3846" y="-20" width="80" relative="1" as="geometry">
            <mxPoint x="575" y="130" as="sourcePoint" />
            <mxPoint x="580" y="150" as="targetPoint" />
            <Array as="points">
              <mxPoint x="600" y="130" />
              <mxPoint x="600" y="150" />
            </Array>
            <mxPoint x="20" y="20" as="offset" />
          </mxGeometry>
        </mxCell>
        <mxCell id="Be_zVolLUweFgLfppq9m-33" value="start()" style="html=1;verticalAlign=bottom;endArrow=block;rounded=0;entryX=0;entryY=0;entryDx=0;entryDy=0;" edge="1" parent="1">
          <mxGeometry width="80" relative="1" as="geometry">
            <mxPoint x="575" y="179.6" as="sourcePoint" />
            <mxPoint x="705" y="180" as="targetPoint" />
          </mxGeometry>
        </mxCell>
        <mxCell id="Be_zVolLUweFgLfppq9m-34" value="start()" style="html=1;verticalAlign=bottom;endArrow=block;rounded=0;" edge="1" parent="1">
          <mxGeometry width="80" relative="1" as="geometry">
            <mxPoint x="555" y="179.42999999999998" as="sourcePoint" />
            <mxPoint x="130" y="180" as="targetPoint" />
          </mxGeometry>
        </mxCell>
        <mxCell id="Be_zVolLUweFgLfppq9m-35" value="start()" style="html=1;verticalAlign=bottom;endArrow=block;rounded=0;" edge="1" parent="1">
          <mxGeometry x="0.1812" width="80" relative="1" as="geometry">
            <mxPoint x="552.9999999999998" y="199.99999999999991" as="sourcePoint" />
            <mxPoint x="277" y="200" as="targetPoint" />
            <mxPoint as="offset" />
          </mxGeometry>
        </mxCell>
        <mxCell id="Be_zVolLUweFgLfppq9m-36" value="start()" style="html=1;verticalAlign=bottom;endArrow=block;rounded=0;" edge="1" parent="1">
          <mxGeometry x="0.024" width="80" relative="1" as="geometry">
            <mxPoint x="553.9999999999998" y="219.9999999999999" as="sourcePoint" />
            <mxPoint x="429" y="220" as="targetPoint" />
            <mxPoint as="offset" />
          </mxGeometry>
        </mxCell>
        <mxCell id="Be_zVolLUweFgLfppq9m-37" value="run()" style="html=1;verticalAlign=bottom;endArrow=block;rounded=0;" edge="1" parent="1">
          <mxGeometry x="0.3846" y="-20" width="80" relative="1" as="geometry">
            <mxPoint x="725" y="190" as="sourcePoint" />
            <mxPoint x="730" y="210" as="targetPoint" />
            <Array as="points">
              <mxPoint x="750" y="190" />
              <mxPoint x="750" y="210" />
            </Array>
            <mxPoint x="20" y="20" as="offset" />
          </mxGeometry>
        </mxCell>
        <mxCell id="Be_zVolLUweFgLfppq9m-38" value="run()" style="html=1;verticalAlign=bottom;endArrow=block;rounded=0;" edge="1" parent="1">
          <mxGeometry x="0.3846" y="-20" width="80" relative="1" as="geometry">
            <mxPoint x="424.9999999999998" y="240" as="sourcePoint" />
            <mxPoint x="429.9999999999998" y="260" as="targetPoint" />
            <Array as="points">
              <mxPoint x="450" y="240" />
              <mxPoint x="450" y="260" />
            </Array>
            <mxPoint x="20" y="20" as="offset" />
          </mxGeometry>
        </mxCell>
        <mxCell id="Be_zVolLUweFgLfppq9m-39" value="run()" style="html=1;verticalAlign=bottom;endArrow=block;rounded=0;" edge="1" parent="1">
          <mxGeometry x="0.3846" y="-20" width="80" relative="1" as="geometry">
            <mxPoint x="274.99999999999966" y="220" as="sourcePoint" />
            <mxPoint x="279.99999999999966" y="240" as="targetPoint" />
            <Array as="points">
              <mxPoint x="300" y="220" />
              <mxPoint x="300" y="240" />
            </Array>
            <mxPoint x="20" y="20" as="offset" />
          </mxGeometry>
        </mxCell>
        <mxCell id="Be_zVolLUweFgLfppq9m-40" value="run()" style="html=1;verticalAlign=bottom;endArrow=block;rounded=0;" edge="1" parent="1">
          <mxGeometry x="0.3846" y="-20" width="80" relative="1" as="geometry">
            <mxPoint x="124.99999999999966" y="200" as="sourcePoint" />
            <mxPoint x="129.99999999999966" y="220" as="targetPoint" />
            <Array as="points">
              <mxPoint x="150" y="200" />
              <mxPoint x="150" y="220" />
            </Array>
            <mxPoint x="20" y="20" as="offset" />
          </mxGeometry>
        </mxCell>
        <mxCell id="Be_zVolLUweFgLfppq9m-41" value="getSandwich()" style="html=1;verticalAlign=bottom;endArrow=block;rounded=0;" edge="1" parent="1">
          <mxGeometry x="-0.2308" y="20" width="80" relative="1" as="geometry">
            <mxPoint x="124.99999999999955" y="360" as="sourcePoint" />
            <mxPoint x="129.99999999999955" y="380" as="targetPoint" />
            <Array as="points">
              <mxPoint x="150" y="360" />
              <mxPoint x="150" y="380" />
            </Array>
            <mxPoint as="offset" />
          </mxGeometry>
        </mxCell>
        <mxCell id="Be_zVolLUweFgLfppq9m-44" value="putIngredients(table)" style="html=1;verticalAlign=bottom;endArrow=block;rounded=0;fontStyle=0" edge="1" parent="1">
          <mxGeometry x="-0.2308" y="40" width="80" relative="1" as="geometry">
            <mxPoint x="724.9999999999995" y="360" as="sourcePoint" />
            <mxPoint x="729.9999999999995" y="380" as="targetPoint" />
            <Array as="points">
              <mxPoint x="750" y="360" />
              <mxPoint x="750" y="380" />
            </Array>
            <mxPoint as="offset" />
          </mxGeometry>
        </mxCell>
        <mxCell id="Be_zVolLUweFgLfppq9m-45" value="getSandwich()" style="html=1;verticalAlign=bottom;endArrow=block;rounded=0;" edge="1" parent="1">
          <mxGeometry x="-0.2308" y="20" width="80" relative="1" as="geometry">
            <mxPoint x="274.99999999999955" y="360" as="sourcePoint" />
            <mxPoint x="279.99999999999955" y="380" as="targetPoint" />
            <Array as="points">
              <mxPoint x="300" y="360" />
              <mxPoint x="300" y="380" />
            </Array>
            <mxPoint as="offset" />
          </mxGeometry>
        </mxCell>
        <mxCell id="Be_zVolLUweFgLfppq9m-46" value="getSandwich()" style="html=1;verticalAlign=bottom;endArrow=block;rounded=0;" edge="1" parent="1">
          <mxGeometry x="-0.2308" y="20" width="80" relative="1" as="geometry">
            <mxPoint x="424.99999999999955" y="360" as="sourcePoint" />
            <mxPoint x="429.99999999999955" y="380" as="targetPoint" />
            <Array as="points">
              <mxPoint x="450" y="360" />
              <mxPoint x="450" y="380" />
            </Array>
            <mxPoint as="offset" />
          </mxGeometry>
        </mxCell>
        <mxCell id="Be_zVolLUweFgLfppq9m-51" value="" style="group" vertex="1" connectable="0" parent="1">
          <mxGeometry x="-890" y="340" width="840" height="290" as="geometry" />
        </mxCell>
        <mxCell id="Be_zVolLUweFgLfppq9m-47" value="par" style="shape=umlFrame;whiteSpace=wrap;html=1;" vertex="1" parent="Be_zVolLUweFgLfppq9m-51">
          <mxGeometry width="840" height="290" as="geometry" />
        </mxCell>
        <mxCell id="Be_zVolLUweFgLfppq9m-48" value="[synchronized]" style="text;html=1;strokeColor=none;fillColor=none;align=center;verticalAlign=middle;whiteSpace=wrap;rounded=0;" vertex="1" parent="Be_zVolLUweFgLfppq9m-51">
          <mxGeometry x="20" y="30.00333333333333" width="60" height="23.333333333333332" as="geometry" />
        </mxCell>
        <mxCell id="Be_zVolLUweFgLfppq9m-52" value="wait()" style="html=1;verticalAlign=bottom;endArrow=block;rounded=0;" edge="1" parent="1">
          <mxGeometry x="-0.2308" y="20" width="80" relative="1" as="geometry">
            <mxPoint x="124.99999999999955" y="420" as="sourcePoint" />
            <mxPoint x="129.99999999999955" y="440" as="targetPoint" />
            <Array as="points">
              <mxPoint x="150" y="420" />
              <mxPoint x="150" y="440" />
            </Array>
            <mxPoint as="offset" />
          </mxGeometry>
        </mxCell>
        <mxCell id="Be_zVolLUweFgLfppq9m-53" value="wait()" style="html=1;verticalAlign=bottom;endArrow=block;rounded=0;" edge="1" parent="1">
          <mxGeometry x="-0.2308" y="20" width="80" relative="1" as="geometry">
            <mxPoint x="274.99999999999955" y="420" as="sourcePoint" />
            <mxPoint x="279.99999999999955" y="440" as="targetPoint" />
            <Array as="points">
              <mxPoint x="300" y="420" />
              <mxPoint x="300" y="440" />
            </Array>
            <mxPoint as="offset" />
          </mxGeometry>
        </mxCell>
        <mxCell id="Be_zVolLUweFgLfppq9m-54" value="wait()" style="html=1;verticalAlign=bottom;endArrow=block;rounded=0;" edge="1" parent="1">
          <mxGeometry x="-0.2308" y="20" width="80" relative="1" as="geometry">
            <mxPoint x="424.99999999999955" y="420" as="sourcePoint" />
            <mxPoint x="429.99999999999955" y="440" as="targetPoint" />
            <Array as="points">
              <mxPoint x="450" y="420" />
              <mxPoint x="450" y="440" />
            </Array>
            <mxPoint as="offset" />
          </mxGeometry>
        </mxCell>
        <mxCell id="Be_zVolLUweFgLfppq9m-55" value="wait()" style="html=1;verticalAlign=bottom;endArrow=block;rounded=0;" edge="1" parent="1">
          <mxGeometry x="-0.2308" y="20" width="80" relative="1" as="geometry">
            <mxPoint x="724.9999999999995" y="420" as="sourcePoint" />
            <mxPoint x="729.9999999999995" y="440" as="targetPoint" />
            <Array as="points">
              <mxPoint x="750" y="420" />
              <mxPoint x="750" y="440" />
            </Array>
            <mxPoint as="offset" />
          </mxGeometry>
        </mxCell>
        <mxCell id="Be_zVolLUweFgLfppq9m-56" value="" style="group" vertex="1" connectable="0" parent="1">
          <mxGeometry x="10" y="395" width="790" height="65" as="geometry" />
        </mxCell>
        <mxCell id="Be_zVolLUweFgLfppq9m-57" value="loop" style="shape=umlFrame;whiteSpace=wrap;html=1;" vertex="1" parent="Be_zVolLUweFgLfppq9m-56">
          <mxGeometry x="-30" width="820" height="65" as="geometry" />
        </mxCell>
        <mxCell id="Be_zVolLUweFgLfppq9m-58" value="[while !table.empty()]" style="text;html=1;strokeColor=none;fillColor=none;align=center;verticalAlign=middle;whiteSpace=wrap;rounded=0;" vertex="1" parent="Be_zVolLUweFgLfppq9m-56">
          <mxGeometry x="-30" y="35" width="121.19" height="20.23" as="geometry" />
        </mxCell>
      </root>
    </mxGraphModel>
  </diagram>
</mxfile>
